<mxfile host="app.diagrams.net" modified="2022-07-30T15:28:17.445Z" agent="5.0 (Windows)" etag="-CkHByEnU-2kkm50wXFn" version="20.2.2" type="github">
  <diagram id="pIfoinz57ZPRVRw4wzUu" name="Page-1">
    <mxGraphModel dx="1422" dy="744" grid="1" gridSize="10" guides="1" tooltips="1" connect="1" arrows="1" fold="1" page="1" pageScale="1" pageWidth="827" pageHeight="1169" background="none" math="0" shadow="0">
      <root>
        <mxCell id="0" />
        <mxCell id="1" parent="0" />
        <mxCell id="0HhxuMPmHfuYkAqVo-YR-1" value="&lt;font style=&quot;font-size: 20px;&quot;&gt;Début&lt;/font&gt;" style="ellipse;whiteSpace=wrap;html=1;fillColor=#f5f5f5;fontColor=#333333;strokeColor=#666666;" parent="1" vertex="1">
          <mxGeometry x="228.85" y="20" width="120" height="80" as="geometry" />
        </mxCell>
        <mxCell id="5_fTP7xW8VT0wjeEk7GJ-1" value="" style="endArrow=classic;html=1;rounded=0;exitX=0.5;exitY=1;exitDx=0;exitDy=0;strokeWidth=2;" parent="1" source="0HhxuMPmHfuYkAqVo-YR-1" edge="1">
          <mxGeometry width="50" height="50" relative="1" as="geometry">
            <mxPoint x="264.85" y="290" as="sourcePoint" />
            <mxPoint x="288.85" y="140" as="targetPoint" />
          </mxGeometry>
        </mxCell>
        <mxCell id="5_fTP7xW8VT0wjeEk7GJ-2" value="&lt;font style=&quot;font-size: 15px;&quot;&gt;Taper du texte &lt;/font&gt;" style="rounded=1;whiteSpace=wrap;html=1;fillColor=#f9f7ed;strokeColor=#36393d;" parent="1" vertex="1">
          <mxGeometry x="187.85" y="140" width="201" height="60" as="geometry" />
        </mxCell>
        <mxCell id="5_fTP7xW8VT0wjeEk7GJ-5" value="" style="endArrow=classic;html=1;rounded=0;exitX=0.5;exitY=1;exitDx=0;exitDy=0;strokeWidth=2;" parent="1" edge="1">
          <mxGeometry width="50" height="50" relative="1" as="geometry">
            <mxPoint x="287.85" y="200" as="sourcePoint" />
            <mxPoint x="287.85" y="240" as="targetPoint" />
          </mxGeometry>
        </mxCell>
        <mxCell id="5_fTP7xW8VT0wjeEk7GJ-6" value="&lt;div&gt;Texte supérieur à 3 &lt;br&gt;&lt;/div&gt;&lt;div&gt;caractères&lt;/div&gt;" style="rhombus;whiteSpace=wrap;html=1;fontSize=15;fillColor=#fff2cc;strokeColor=#d6b656;" parent="1" vertex="1">
          <mxGeometry x="181.85" y="240" width="212.25" height="100" as="geometry" />
        </mxCell>
        <mxCell id="5_fTP7xW8VT0wjeEk7GJ-7" value="" style="endArrow=classic;html=1;rounded=0;fontSize=15;strokeWidth=2;" parent="1" edge="1">
          <mxGeometry width="50" height="50" relative="1" as="geometry">
            <mxPoint x="287.85" y="340" as="sourcePoint" />
            <mxPoint x="287.85" y="390" as="targetPoint" />
          </mxGeometry>
        </mxCell>
        <mxCell id="5_fTP7xW8VT0wjeEk7GJ-8" value="&lt;b&gt;Oui&lt;/b&gt;" style="text;html=1;strokeColor=none;fillColor=none;align=center;verticalAlign=middle;whiteSpace=wrap;rounded=0;fontSize=15;" parent="1" vertex="1">
          <mxGeometry x="288.85" y="340" width="60" height="30" as="geometry" />
        </mxCell>
        <mxCell id="5_fTP7xW8VT0wjeEk7GJ-9" value="&lt;div align=&quot;center&quot;&gt;&lt;blockquote&gt;&lt;div&gt;Recherche dans le titre, la liste des ingrédients et la description des recettes&lt;/div&gt;&lt;/blockquote&gt;&lt;/div&gt;" style="rounded=1;whiteSpace=wrap;html=1;fontSize=15;perimeterSpacing=7;align=center;fillColor=#f9f7ed;strokeColor=#36393d;" parent="1" vertex="1">
          <mxGeometry x="172.99999999999997" y="390" width="229.94" height="100" as="geometry" />
        </mxCell>
        <mxCell id="5_fTP7xW8VT0wjeEk7GJ-10" value="" style="endArrow=classic;html=1;rounded=0;fontSize=15;strokeWidth=2;" parent="1" edge="1">
          <mxGeometry width="50" height="50" relative="1" as="geometry">
            <mxPoint x="394.85" y="290" as="sourcePoint" />
            <mxPoint x="464.85" y="290" as="targetPoint" />
          </mxGeometry>
        </mxCell>
        <mxCell id="5_fTP7xW8VT0wjeEk7GJ-17" value="Message d&#39;erreur" style="rounded=1;whiteSpace=wrap;html=1;fontSize=15;fillColor=#f8cecc;strokeColor=#b85450;" parent="1" vertex="1">
          <mxGeometry x="464.85" y="240" width="150" height="100" as="geometry" />
        </mxCell>
        <mxCell id="5_fTP7xW8VT0wjeEk7GJ-18" value="" style="endArrow=classic;html=1;rounded=0;fontSize=15;strokeWidth=2;entryX=1;entryY=0.5;entryDx=0;entryDy=0;" parent="1" target="0HhxuMPmHfuYkAqVo-YR-1" edge="1">
          <mxGeometry width="50" height="50" relative="1" as="geometry">
            <mxPoint x="534.85" y="240" as="sourcePoint" />
            <mxPoint x="584.85" y="190" as="targetPoint" />
            <Array as="points">
              <mxPoint x="534.85" y="60" />
            </Array>
          </mxGeometry>
        </mxCell>
        <mxCell id="5_fTP7xW8VT0wjeEk7GJ-19" value="" style="endArrow=classic;html=1;rounded=0;exitX=0.5;exitY=1;exitDx=0;exitDy=0;strokeWidth=2;" parent="1" edge="1">
          <mxGeometry width="50" height="50" relative="1" as="geometry">
            <mxPoint x="287.85" y="490" as="sourcePoint" />
            <mxPoint x="287.85" y="530" as="targetPoint" />
          </mxGeometry>
        </mxCell>
        <mxCell id="5_fTP7xW8VT0wjeEk7GJ-20" value="&lt;b&gt;Non&lt;/b&gt;" style="text;html=1;strokeColor=none;fillColor=none;align=center;verticalAlign=middle;whiteSpace=wrap;rounded=0;fontSize=15;" parent="1" vertex="1">
          <mxGeometry x="394.1" y="260" width="60" height="30" as="geometry" />
        </mxCell>
        <mxCell id="5_fTP7xW8VT0wjeEk7GJ-21" value="&lt;blockquote&gt;&lt;div align=&quot;center&quot;&gt;&lt;font style=&quot;font-size: 15px;&quot;&gt;Correspondance de la recherche avec les recettes&lt;/font&gt;&lt;/div&gt;&lt;/blockquote&gt;" style="rhombus;whiteSpace=wrap;html=1;fontSize=15;align=center;fillColor=#fff2cc;strokeColor=#d6b656;" parent="1" vertex="1">
          <mxGeometry x="178.85" y="530" width="219" height="120" as="geometry" />
        </mxCell>
        <mxCell id="yBBHkAhOHsYDclR4pT0l-1" value="" style="endArrow=classic;html=1;rounded=0;fontSize=15;entryX=0.453;entryY=1.02;entryDx=0;entryDy=0;entryPerimeter=0;strokeWidth=2;" edge="1" parent="1" target="5_fTP7xW8VT0wjeEk7GJ-17">
          <mxGeometry width="50" height="50" relative="1" as="geometry">
            <mxPoint x="397.85" y="590" as="sourcePoint" />
            <mxPoint x="447.85" y="540" as="targetPoint" />
            <Array as="points">
              <mxPoint x="532.85" y="590" />
            </Array>
          </mxGeometry>
        </mxCell>
        <mxCell id="yBBHkAhOHsYDclR4pT0l-3" value="&lt;b&gt;Non&lt;/b&gt;" style="text;html=1;align=center;verticalAlign=middle;resizable=0;points=[];autosize=1;strokeColor=none;fillColor=none;fontSize=15;" vertex="1" parent="1">
          <mxGeometry x="389.85" y="555" width="50" height="30" as="geometry" />
        </mxCell>
        <mxCell id="yBBHkAhOHsYDclR4pT0l-5" value="" style="endArrow=classic;html=1;rounded=0;fontSize=15;strokeWidth=2;" edge="1" parent="1">
          <mxGeometry width="50" height="50" relative="1" as="geometry">
            <mxPoint x="288.85" y="650" as="sourcePoint" />
            <mxPoint x="288.85" y="700" as="targetPoint" />
          </mxGeometry>
        </mxCell>
        <mxCell id="yBBHkAhOHsYDclR4pT0l-6" value="&lt;b&gt;Oui&lt;/b&gt;" style="text;html=1;strokeColor=none;fillColor=none;align=center;verticalAlign=middle;whiteSpace=wrap;rounded=0;fontSize=15;" vertex="1" parent="1">
          <mxGeometry x="289.85" y="650" width="60" height="30" as="geometry" />
        </mxCell>
        <mxCell id="yBBHkAhOHsYDclR4pT0l-7" value="Affichage des recettes filtrée" style="rounded=1;whiteSpace=wrap;html=1;fontSize=15;fillColor=#f9f7ed;strokeColor=#36393d;" vertex="1" parent="1">
          <mxGeometry x="200.85" y="700" width="175" height="60" as="geometry" />
        </mxCell>
        <mxCell id="yBBHkAhOHsYDclR4pT0l-9" value="" style="endArrow=classic;html=1;rounded=0;exitX=0.5;exitY=1;exitDx=0;exitDy=0;strokeWidth=2;" edge="1" parent="1">
          <mxGeometry width="50" height="50" relative="1" as="geometry">
            <mxPoint x="287.85" y="760" as="sourcePoint" />
            <mxPoint x="287.85" y="800" as="targetPoint" />
          </mxGeometry>
        </mxCell>
        <mxCell id="yBBHkAhOHsYDclR4pT0l-10" value="Actualisation des éléments disponibles dans les&lt;br&gt;champs de recherche avancée" style="shape=parallelogram;perimeter=parallelogramPerimeter;whiteSpace=wrap;html=1;fixedSize=1;fontSize=15;fillColor=#dae8fc;strokeColor=#6c8ebf;" vertex="1" parent="1">
          <mxGeometry x="417.27000000000004" y="691.25" width="245.15" height="77.5" as="geometry" />
        </mxCell>
        <mxCell id="yBBHkAhOHsYDclR4pT0l-11" value="" style="endArrow=classic;html=1;rounded=0;fontSize=15;strokeWidth=2;entryX=0;entryY=0.5;entryDx=0;entryDy=0;" edge="1" parent="1" target="yBBHkAhOHsYDclR4pT0l-10">
          <mxGeometry width="50" height="50" relative="1" as="geometry">
            <mxPoint x="375.85" y="730" as="sourcePoint" />
            <mxPoint x="450" y="730" as="targetPoint" />
          </mxGeometry>
        </mxCell>
        <mxCell id="yBBHkAhOHsYDclR4pT0l-12" value="L&#39;utilisateur sélectionne une recette" style="rounded=1;whiteSpace=wrap;html=1;fontSize=15;fillColor=#f9f7ed;strokeColor=#36393d;" vertex="1" parent="1">
          <mxGeometry x="198.85" y="800" width="180" height="60" as="geometry" />
        </mxCell>
        <mxCell id="yBBHkAhOHsYDclR4pT0l-16" value="" style="endArrow=classic;html=1;rounded=0;exitX=0.5;exitY=1;exitDx=0;exitDy=0;strokeWidth=2;" edge="1" parent="1">
          <mxGeometry width="50" height="50" relative="1" as="geometry">
            <mxPoint x="287.4699999999999" y="860" as="sourcePoint" />
            <mxPoint x="287.4699999999999" y="900" as="targetPoint" />
          </mxGeometry>
        </mxCell>
        <mxCell id="yBBHkAhOHsYDclR4pT0l-17" value="&lt;b&gt;&lt;font style=&quot;font-size: 20px;&quot;&gt;Fin&lt;/font&gt;&lt;/b&gt;" style="ellipse;whiteSpace=wrap;html=1;fillColor=#f5f5f5;fontColor=#333333;strokeColor=#666666;" vertex="1" parent="1">
          <mxGeometry x="227.97" y="900" width="120" height="80" as="geometry" />
        </mxCell>
      </root>
    </mxGraphModel>
  </diagram>
</mxfile>
